<?xml version="1.0" standalone="no"?><!DOCTYPE svg PUBLIC "-//W3C//DTD SVG 1.1//EN" "http://www.w3.org/Graphics/SVG/1.1/DTD/svg11.dtd"><svg t="1517240224020" class="icon" style="" viewBox="0 0 1024 1024" version="1.1" xmlns="http://www.w3.org/2000/svg" p-id="705" xmlns:xlink="http://www.w3.org/1999/xlink" width="200" height="200"><defs><style type="text/css"></style></defs><path d="M707.52 692.512a124.32 124.32 0 0 1 2.88-28.16c2.016-8.672 5.12-17.088 9.28-24.96 4.416-8.192 9.664-15.936 15.68-23.04 6.848-8.16 14.208-15.872 22.08-23.04l18.56-17.28c4.512-3.808 8.672-7.968 12.48-12.48a53.76 53.76 0 0 0 7.36-11.52c1.664-3.968 2.752-8.192 3.2-12.48a136.64 136.64 0 0 0 0-15.36 22.688 22.688 0 0 0-22.4-28.16 20.8 20.8 0 0 0-21.44 13.12c-1.92 4.48-3.104 9.216-3.52 14.08v16.96h-44.16v-7.68a65.824 65.824 0 0 1 16.96-48.64 72.96 72.96 0 0 1 53.44-16.96 71.712 71.712 0 0 1 51.2 16c11.712 12.256 17.76 28.864 16.64 45.76 0.032 6.752-0.608 13.536-1.92 20.16-1.28 6.208-3.328 12.224-6.08 17.92-2.944 6.08-6.592 11.776-10.88 16.96a160.256 160.256 0 0 1-16.32 16.64l-25.6 23.68a96.896 96.896 0 0 0-16 17.92c-3.264 4.672-5.76 9.888-7.36 15.36h84.48v35.2h-139.52 0.96z m-197.12-120c0.64 14.208 2.976 28.288 7.04 41.92 2.528 9.312 7.904 17.568 15.36 23.68a50.56 50.56 0 0 0 52.8 0c7.456-6.112 12.832-14.368 15.36-23.68 4.032-13.632 6.4-27.712 7.04-41.92 1.28-17.28 1.92-38.624 1.92-64 0-25.376-0.64-46.72-1.92-64a178.944 178.944 0 0 0-7.04-41.92 46.848 46.848 0 0 0-15.36-23.68 50.56 50.56 0 0 0-52.8 0c-7.424 6.112-12.8 14.4-15.36 23.68a177.312 177.312 0 0 0-7.04 41.92c-1.28 17.056-1.92 38.4-1.92 64s0.64 46.944 1.92 64z m-71.68-139.2a168.832 168.832 0 0 1 16.96-60.16 96 96 0 0 1 37.76-39.04 162.016 162.016 0 0 1 132.16 0 96 96 0 0 1 37.76 39.04c9.344 18.816 15.104 39.232 16.96 60.16a766.72 766.72 0 0 1 0 153.28 168.512 168.512 0 0 1-16.96 59.84c-8.352 16.352-21.536 29.76-37.76 38.4a170.56 170.56 0 0 1-132.16 0 89.792 89.792 0 0 1-37.76-38.4 168.512 168.512 0 0 1-16.96-59.84 766.72 766.72 0 0 1 0-153.28z m-124.48-40.96a35.52 35.52 0 0 0-34.56-18.24 34.56 34.56 0 0 0-22.72 7.36 49.376 49.376 0 0 0-14.08 24 204.48 204.48 0 0 0-7.04 43.52c-1.28 17.92-1.92 39.904-1.92 65.92-0.224 22.432 0.736 44.864 2.88 67.2 1.056 13.568 3.968 26.912 8.64 39.68 2.624 7.776 7.808 14.432 14.72 18.88 6.4 3.328 13.568 4.992 20.8 4.8 6.24 0.096 12.416-0.96 18.24-3.2 6.208-2.784 11.36-7.52 14.72-13.44 4.8-8.768 8.032-18.304 9.6-28.16 2.656-15.84 3.84-31.936 3.52-48h73.6c0.128 18.88-1.376 37.696-4.48 56.32a128.288 128.288 0 0 1-17.28 46.72 85.152 85.152 0 0 1-35.2 32 133.504 133.504 0 0 1-59.2 11.2 139.136 139.136 0 0 1-65.92-13.44 89.792 89.792 0 0 1-37.76-38.4 168.512 168.512 0 0 1-16.96-59.84 766.72 766.72 0 0 1 0-153.28 168.832 168.832 0 0 1 16.96-60.16 96 96 0 0 1 37.76-39.04 132.896 132.896 0 0 1 65.92-14.08 128.128 128.128 0 0 1 62.08 12.8c14.016 7.392 25.728 18.432 33.92 32 7.488 13.088 12.288 27.584 14.08 42.56 1.824 14.208 2.784 28.544 2.88 42.88h-73.6a132.864 132.864 0 0 0-9.6-58.56z" p-id="706"></path></svg>