<?xml version="1.0" standalone="no"?><!DOCTYPE svg PUBLIC "-//W3C//DTD SVG 1.1//EN" "http://www.w3.org/Graphics/SVG/1.1/DTD/svg11.dtd"><svg t="1517240459018" class="icon" style="" viewBox="0 0 1024 1024" version="1.1" xmlns="http://www.w3.org/2000/svg" p-id="1503" xmlns:xlink="http://www.w3.org/1999/xlink" width="200" height="200"><defs><style type="text/css"></style></defs><path d="M732.689655 0h-247.172414c-30.013793 0-52.965517 22.951724-52.965517 52.965517v812.137931h-70.62069v-812.137931c0-28.248276-22.951724-52.965517-52.965517-52.965517h-247.172414c-30.013793 0-52.965517 22.951724-52.965517 52.965517v918.068966c0 28.248276 22.951724 52.965517 52.965517 52.965517h247.172414c30.013793 0 52.965517-22.951724 52.965517-52.965517v-35.310345h70.62069v35.310345c0 28.248276 22.951724 52.965517 52.965517 52.965517h247.172414c30.013793 0 52.965517-22.951724 52.965517-52.965517v-918.068966c0-30.013793-22.951724-52.965517-52.965517-52.965517z m-564.965517 935.724138h-70.62069v-70.62069h70.62069v70.62069z m105.931034-776.827586h-176.551724v-70.62069h176.551724v70.62069z m317.793104 776.827586h-70.62069v-70.62069h70.62069v70.62069z m105.931034-776.827586h-176.551724v-70.62069h176.551724v70.62069zM963.972414 1024c-28.248276 0-51.2-22.951724-51.2-51.2v-921.6c0-28.248276 22.951724-51.2 51.2-51.2 28.248276 0 51.2 22.951724 51.2 51.2v921.6c0 28.248276-22.951724 51.2-51.2 51.2z" p-id="1504"></path></svg>