<?xml version="1.0" standalone="no"?><!DOCTYPE svg PUBLIC "-//W3C//DTD SVG 1.1//EN" "http://www.w3.org/Graphics/SVG/1.1/DTD/svg11.dtd"><svg t="1516540107630" class="icon" style="" viewBox="0 0 1024 1024" version="1.1" xmlns="http://www.w3.org/2000/svg" p-id="760" xmlns:xlink="http://www.w3.org/1999/xlink" width="200" height="200"><defs><style type="text/css"></style></defs><path d="M965.811 842.662h-36.727v-57.986c0-10.678-8.653-19.331-19.329-19.331h-77.317c-10.676 0-19.329 8.653-19.329 19.331v57.986h-40.063c-9.408-65.479-65.859-115.977-133.903-115.977h-30.927s-0.143-128.096-0.404-129.367c2.312-28.656-7.444-58.113-29.319-79.988L476.324 415.159l120.973-120.974a81.956 81.956 0 0 0 14.606-19.811h120.023c10.677 0 19.33-8.654 19.33-19.33v-19.326h45.102v19.359a19.328 19.328 0 0 0 9.666 16.739l67.01 38.686a19.303 19.303 0 0 0 9.665 2.591c3.338 0 6.674-0.864 9.664-2.591l67.01-38.687c9.246-5.337 12.414-17.16 7.075-26.404-5.338-9.245-17.162-12.414-26.404-7.075l-57.345 33.105-47.681-27.527v-55.058l47.681-27.527 57.345 33.107c9.246 5.339 21.068 2.17 26.404-7.074 5.339-9.246 2.171-21.068-7.075-26.405l-67.01-38.687a19.323 19.323 0 0 0-19.329 0l-67.01 38.687a19.329 19.329 0 0 0-9.666 16.74v19.359h-45.102v-19.33c0-10.676-8.653-19.329-19.33-19.329H565.824c-28.727-9.789-61.832-3.26-84.703 19.609L340.497 318.633c-52.052 9.217-91.723 54.752-91.723 109.412 0 36.566 17.757 69.059 45.095 89.325a101.55 101.55 0 0 0 11.768 14.135l105.86 105.858v89.322H387.86c-68.043 0-124.493 50.497-133.903 115.977h-40.064v-57.986c0-10.678-8.653-19.331-19.331-19.331h-77.317c-10.676 0-19.33 8.653-19.33 19.331v57.986H61.189c-10.676 0-19.329 8.653-19.329 19.327 0 10.678 8.653 19.331 19.329 19.331H965.81c10.676 0 19.329-8.653 19.329-19.331 0.001-10.674-8.653-19.327-19.328-19.327zM712.595 197.057v38.66h-91.286c-0.063-13.325-3.344-26.635-9.833-38.66h101.119zM175.233 842.662h-38.659v-38.659h38.66v38.659h-0.001z m333.221-637.319c8.215-8.214 19.134-12.738 30.752-12.738 11.619 0 22.538 4.523 30.753 12.738 16.957 16.957 16.957 44.548 0 61.507L459.008 377.805c-13.615-26.749-37.724-47.281-66.884-56.128l116.33-116.334zM287.428 428.045c0-39.968 32.517-72.486 72.485-72.486 39.969 0 72.486 32.519 72.486 72.486s-32.517 72.486-72.486 72.486-72.485-32.518-72.485-72.486z m80.262 110.841c46.786-3.252 85.68-35.569 98.694-78.991l84.772 84.772c24.493 24.494 24.493 64.347 0 88.84-11.868 11.866-27.641 18.399-44.422 18.399-16.779 0-32.555-6.533-44.42-18.399l-94.624-94.621z m201.866 129.876v57.928H450.155v-53.366c17.042 11.454 36.805 17.201 56.58 17.201 22.242-0.004 44.469-7.273 62.821-21.763z m-276.404 173.9c8.981-44.06 48.033-77.317 94.708-77.317h251.282c46.672 0 85.724 33.258 94.708 77.317H293.152z m597.274 0h-38.66v-38.659h38.66v38.659z" p-id="761"></path><path d="M359.913 408.714c-10.657 0-19.33 8.672-19.33 19.331 0 10.658 8.672 19.331 19.33 19.331 10.659 0 19.331-8.673 19.331-19.331 0-10.659-8.672-19.331-19.331-19.331z" p-id="762"></path></svg>