<?xml version="1.0" standalone="no"?><!DOCTYPE svg PUBLIC "-//W3C//DTD SVG 1.1//EN" "http://www.w3.org/Graphics/SVG/1.1/DTD/svg11.dtd"><svg t="1516539956738" class="icon" style="" viewBox="0 0 1025 1024" version="1.1" xmlns="http://www.w3.org/2000/svg" p-id="2330" xmlns:xlink="http://www.w3.org/1999/xlink" width="200.1953125" height="200"><defs><style type="text/css"></style></defs><path d="M472.483146 751.161182c0.122866 0.124914 0.24778 0.248804 0.372694 0.370646 11.174684 10.873662 25.852081 16.831651 41.412066 16.831651 0.277473 0 0.554946-0.001024 0.832419-0.005119 15.837458-0.217064 30.643864-6.574368 41.702849-17.905707L891.545075 410.683475c9.525205-9.667525 9.408482-25.226487-0.259043-34.750668-9.666501-9.524181-25.227511-9.408482-34.750668 0.259043l-315.80719 320.551874L540.728174 87.434687c0-13.5716-11.001648-24.573248-24.573248-24.573248s-24.573248 11.001648-24.573248 24.573248l0 613.073864L170.858816 374.767626c-9.52111-9.670597-25.080071-9.791415-34.750668-0.269282-9.670597 9.52111-9.791415 25.080071-0.270306 34.750668L472.483146 751.161182z" p-id="2331"></path><path d="M879.012719 846.929272 149.753468 846.929272c-13.5716 0-24.573248 11.001648-24.573248 24.573248s11.001648 24.573248 24.573248 24.573248l729.260275 0c13.5716 0 24.573248-11.001648 24.573248-24.573248S892.584319 846.929272 879.012719 846.929272z" p-id="2332"></path></svg>