<?xml version="1.0" standalone="no"?><!DOCTYPE svg PUBLIC "-//W3C//DTD SVG 1.1//EN" "http://www.w3.org/Graphics/SVG/1.1/DTD/svg11.dtd"><svg t="1517240516889" class="icon" style="" viewBox="0 0 1024 1024" version="1.1" xmlns="http://www.w3.org/2000/svg" p-id="1617" xmlns:xlink="http://www.w3.org/1999/xlink" width="200" height="200"><defs><style type="text/css"></style></defs><path d="M1007.616 837.12L584.192 102.4a82.944 82.944 0 0 0-144.384 0L16.384 837.12a82.944 82.944 0 0 0 72.192 124.928h846.848a82.944 82.944 0 0 0 72.192-124.928z m-66.56 44.544a6.144 6.144 0 0 1-5.632 3.072H88.576a6.144 6.144 0 0 1-5.632-9.728L506.368 142.336a6.144 6.144 0 0 1 10.752 0l423.936 733.184a6.144 6.144 0 0 1 0 6.144z" fill="#1F88D9" p-id="1618"></path><path d="M473.6 347.648v301.568a38.4 38.4 0 0 0 76.8 0V347.648a38.4 38.4 0 0 0-76.8 0z" fill="#1F88D9" p-id="1619"></path><path d="M512 782.336m-46.592 0a46.592 46.592 0 1 0 93.184 0 46.592 46.592 0 1 0-93.184 0Z" fill="#1F88D9" p-id="1620"></path></svg>