<?xml version="1.0" standalone="no"?><!DOCTYPE svg PUBLIC "-//W3C//DTD SVG 1.1//EN" "http://www.w3.org/Graphics/SVG/1.1/DTD/svg11.dtd"><svg t="1518276928831" class="icon" style="" viewBox="0 0 1024 1024" version="1.1" xmlns="http://www.w3.org/2000/svg" p-id="5099" xmlns:xlink="http://www.w3.org/1999/xlink" width="200" height="200"><defs><style type="text/css"></style></defs><path d="M991.232 463.872L593.92 40.96c-22.528-24.064-52.224-35.84-81.92-35.84-29.696 0-59.392 11.776-81.92 35.84L32.768 463.872c-45.056 48.128-28.16 87.552 37.888 87.552h71.68V916.48c0 56.32 46.08 102.4 102.4 102.4h534.016c56.32 0 102.4-46.08 102.4-102.4v-365.056h71.68c66.048 0 83.456-39.424 38.4-87.552z m-37.888 36.352h-122.88V916.48c0 28.16-23.04 51.2-51.2 51.2H245.248c-28.16 0-51.2-23.04-51.2-51.2V500.224H69.632l1.024-1.024 396.8-422.912c12.288-12.8 27.648-19.968 44.544-19.968s32.768 7.168 44.544 19.968l396.8 422.912 1.024 1.024h-1.024z" p-id="5100"></path><path d="M346.112 629.76v-64.512H629.76V596.992c0 3.584 3.072 6.656 6.656 6.656 1.536 0 2.56-0.512 4.096-1.024l68.608-48.64c1.536-1.024 3.072-3.072 3.072-5.632 0-2.048-1.024-4.096-2.56-5.632l-68.608-48.64c-1.024-0.512-2.56-1.024-3.584-1.024-3.584 0-6.656 3.072-6.656 6.656v31.232h-307.2c-6.144 0-11.264 5.12-11.264 11.264V663.04l11.264-11.264 22.528-22.016zM700.416 615.936l-22.528 22.528v64.512H394.24v-31.232-0.512c0-3.584-3.072-6.656-6.656-6.656-1.536 0-2.56 0.512-4.096 1.024l-68.608 48.64c-1.536 1.024-3.072 3.072-3.072 5.632 0 2.048 1.024 4.096 2.56 5.632l68.608 48.64c1.024 0.512 2.56 1.024 3.584 1.024 3.584 0 6.656-3.072 6.656-6.656V737.28h306.176c6.144 0 11.264-5.12 11.264-11.264V604.16l-10.24 11.776z" p-id="5101"></path></svg>