<?xml version="1.0" standalone="no"?><!DOCTYPE svg PUBLIC "-//W3C//DTD SVG 1.1//EN" "http://www.w3.org/Graphics/SVG/1.1/DTD/svg11.dtd"><svg t="1517239968498" class="icon" style="" viewBox="0 0 1024 1024" version="1.1" xmlns="http://www.w3.org/2000/svg" p-id="591" xmlns:xlink="http://www.w3.org/1999/xlink" width="200" height="200"><defs><style type="text/css"></style></defs><path d="M984.976711 489.236415c-0.722653-15.898377-14.45307-28.183486-30.351446-27.460833-15.898377 0.722653-28.183486 14.45307-27.460833 30.351447 0.722653 7.226535 0.722653 14.45307 0.722653 21.679605 0 226.913197-184.999294 411.912491-411.912491 411.912491s-411.912491-184.999294-411.912491-411.912491 184.999294-411.912491 411.912491-411.912491c59.98024 0 118.515173 13.007763 172.714185 37.577981 6.503881 2.890614 12.285109 5.781228 18.788991 9.394496 14.45307 7.226535 31.796754 2.16796 39.023289-12.28511s2.16796-31.796754-12.28511-39.023288c-7.226535-3.613267-13.730416-7.226535-20.956951-10.117149-62.1482-28.90614-127.909668-43.35921-196.56175-43.35921-259.432604 0-469.724771 211.01482-469.724771 469.724771s211.01482 469.724771 469.724771 469.72477 469.724771-211.01482 469.72477-469.72477c-0.722653-7.949188-1.445307-16.62103-1.445307-24.570219z" fill="#707070" p-id="592"></path><path d="M936.558927 377.947777m-31.0741 0a31.0741 31.0741 0 1 0 62.148201 0 31.0741 31.0741 0 1 0-62.148201 0Z" fill="#707070" p-id="593"></path><path d="M889.58645 276.776288m-31.0741 0a31.0741 31.0741 0 1 0 62.1482 0 31.0741 31.0741 0 1 0-62.1482 0Z" fill="#707070" p-id="594"></path><path d="M814.430487 189.335215m-31.0741 0a31.0741 31.0741 0 1 0 62.1482 0 31.0741 31.0741 0 1 0-62.1482 0Z" fill="#707070" p-id="595"></path><path d="M443.709245 745.778405c17.343684 0 31.0741-13.730416 31.0741-31.0741v-401.072689c0-12.285109-7.949188-23.847565-19.511644-28.90614-11.562456-5.058574-25.292872-2.16796-33.964714 6.503882l-132.968243 132.968243c-12.285109 12.285109-12.285109 31.796754 0 44.081863 12.285109 12.285109 31.796754 12.285109 44.081863 0l80.214538-80.214538V713.981651c0 18.066337 13.730416 31.796754 31.0741 31.796754zM581.736062 281.834862c-17.343684 0-31.0741 13.730416-31.0741 31.074101V713.981651c0 12.285109 7.949188 23.847565 19.511644 28.90614 3.613267 1.445307 7.949188 2.16796 12.28511 2.167961 7.949188 0 15.898377-2.890614 22.402258-9.394496l138.749471-138.749471c12.285109-12.285109 12.285109-31.796754 0-44.081863-12.285109-12.285109-31.796754-12.285109-44.081863 0l-85.995766 85.995766v-325.916725c-0.722653-17.343684-15.175723-31.0741-31.796754-31.074101z" fill="#707070" p-id="596"></path></svg>