<?xml version="1.0" standalone="no"?><!DOCTYPE svg PUBLIC "-//W3C//DTD SVG 1.1//EN" "http://www.w3.org/Graphics/SVG/1.1/DTD/svg11.dtd"><svg t="1518166136497" class="icon" style="" viewBox="0 0 1024 1024" version="1.1" xmlns="http://www.w3.org/2000/svg" p-id="2249" xmlns:xlink="http://www.w3.org/1999/xlink" width="200" height="200"><defs><style type="text/css"></style></defs><path d="M512 65c-174.857 0-316.625 141.753-316.625 316.625C195.375 597.762 512 959 512 959s316.625-361.238 316.625-577.375C828.625 206.753 686.856 65 512 65zM225.175 381.625C225.175 223.472 353.848 94.8 512 94.8s286.825 128.672 286.825 286.825c0 169.909-215.716 445.064-286.825 531.146C440.89 826.689 225.175 551.534 225.175 381.625z" p-id="2250"></path><path d="M512 232.625c-82.154 0-149 66.846-149 149 0 82.153 66.846 149 149 149 82.154 0 149-66.847 149-149C661 299.471 594.154 232.625 512 232.625zM512 500.825c-65.726 0-119.2-53.475-119.2-119.2 0-65.726 53.474-119.2 119.2-119.2 65.726 0 119.2 53.474 119.2 119.2C631.2 447.351 577.726 500.825 512 500.825z" p-id="2251"></path></svg>