<?xml version="1.0" standalone="no"?><!DOCTYPE svg PUBLIC "-//W3C//DTD SVG 1.1//EN" "http://www.w3.org/Graphics/SVG/1.1/DTD/svg11.dtd"><svg t="1517239414875" class="icon" style="" viewBox="0 0 1024 1024" version="1.1" xmlns="http://www.w3.org/2000/svg" p-id="1951" xmlns:xlink="http://www.w3.org/1999/xlink" width="200" height="200"><defs><style type="text/css"></style></defs><path d="M544 616.576A63.968 63.968 0 0 1 512 736a64 64 0 0 1-32-119.424V288a32 32 0 0 1 64 0v328.576zM256 544H224a32 32 0 0 1 0-64h32a32 32 0 0 1 0 64z m32-128H224a32 32 0 0 1 0-64h64a32 32 0 0 1 0 64z m0-128H224a32 32 0 0 1 0-64h64a32 32 0 0 1 0 64zM224 672a32 32 0 0 1-32-32 26.656 26.656 0 0 1 2.56-12.16c1.632-3.872 3.904-7.456 6.72-10.56A32 32 0 1 1 224 672z m0 128a33.6 33.6 0 0 1-22.72-9.28 32.128 32.128 0 0 1-6.72-10.56A26.656 26.656 0 0 1 192 768a32.064 32.064 0 0 1 54.624-22.624A32 32 0 0 1 224 800z m576-256h-32a32 32 0 0 1 0-64h32a32 32 0 0 1 0 64z m0-128h-64a32 32 0 0 1 0-64h64a32 32 0 0 1 0 64z m0-128h-64a32 32 0 0 1 0-64h64a32 32 0 0 1 0 64z m0 384a32 32 0 1 1 22.72-9.28l-5.12 3.84-5.44 2.88-6.08 1.92L800 672z m0 128a33.6 33.6 0 0 1-22.72-9.28 37.28 37.28 0 0 1-6.72-10.56A26.656 26.656 0 0 1 768 768a31.968 31.968 0 1 1 61.44 12.16 37.28 37.28 0 0 1-6.72 10.56A33.6 33.6 0 0 1 800 800zM512 192a96 96 0 0 1 96 96v227.52c0 16.736 6.528 32.832 18.24 44.8a160 160 0 1 1-228.48 0c11.712-11.968 18.24-28.064 18.24-44.8V288a96 96 0 0 1 96-96z m0-64a160 160 0 0 0-160 160v227.52a224 224 0 1 0 320 0V288a160 160 0 0 0-160-160z" p-id="1952"></path></svg>